<?xml version="1.0" encoding="UTF-8" standalone="no"?>
<svg
   xmlns:dc="http://purl.org/dc/elements/1.1/"
   xmlns:cc="http://creativecommons.org/ns#"
   xmlns:rdf="http://www.w3.org/1999/02/22-rdf-syntax-ns#"
   xmlns:svg="http://www.w3.org/2000/svg"
   xmlns="http://www.w3.org/2000/svg"
   xmlns:xlink="http://www.w3.org/1999/xlink"
   xmlns:sodipodi="http://sodipodi.sourceforge.net/DTD/sodipodi-0.dtd"
   xmlns:inkscape="http://www.inkscape.org/namespaces/inkscape"
   sodipodi:modified="true"
   inkscape:output_extension="org.inkscape.output.svg.inkscape"
   sodipodi:docname="Logo Oisux_aligne.svg"
   version="1.0"
   inkscape:version="1.0.2 (e86c870879, 2021-01-15)"
   sodipodi:version="0.32"
   id="svg4771"
   height="32.241302mm"
   width="82.2659mm"
   inkscape:export-filename="/run/media/lynx/Tera/Oisux/Pub/Logos/Logo_Oisux/Logo Oisux_aligne.png"
   inkscape:export-xdpi="600"
   inkscape:export-ydpi="600">
  <defs
     id="defs4773">
    <linearGradient
       id="linearGradient3136">
      <stop
         id="stop3138"
         offset="0"
         style="stop-color:#ffcc00;stop-opacity:1;" />
      <stop
         id="stop3140"
         offset="1"
         style="stop-color:#ffcc00;stop-opacity:0;" />
    </linearGradient>
    <linearGradient
       gradientTransform="translate(1.6978089,4.5456864)"
       gradientUnits="userSpaceOnUse"
       y2="48.481686"
       x2="84.226089"
       y1="48.481686"
       x1="7.8232269"
       id="linearGradient3142"
       xlink:href="#linearGradient3136"
       inkscape:collect="always" />
  </defs>
  <sodipodi:namedview
     inkscape:document-rotation="0"
     fit-margin-bottom="1"
     fit-margin-right="1"
     fit-margin-left="1"
     fit-margin-top="1"
     units="mm"
     inkscape:window-maximized="1"
     showgrid="true"
     inkscape:window-y="0"
     inkscape:window-x="0"
     inkscape:window-height="1021"
     inkscape:window-width="1680"
     height="102.36px"
     width="314px"
     inkscape:current-layer="g3069"
     inkscape:document-units="px"
     inkscape:cy="60.928446"
     inkscape:cx="155.46312"
     inkscape:zoom="3.7372208"
     inkscape:pageshadow="2"
     inkscape:pageopacity="0.0"
     borderopacity="1.0"
     bordercolor="#666666"
     pagecolor="#ffffff"
     id="base"
     lock-margins="true"
     showguides="true"
     inkscape:guide-bbox="true">
    <sodipodi:guide
       position="54.643586,-53.888696"
       orientation="0,-1"
       id="guide2850" />
    <inkscape:grid
       type="xygrid"
       id="grid2852"
       spacingx="10"
       spacingy="10"
       empspacing="1" />
  </sodipodi:namedview>
  <metadata
     id="metadata4776">
    <rdf:RDF>
      <cc:Work
         rdf:about="">
        <dc:format>image/svg+xml</dc:format>
        <dc:type
           rdf:resource="http://purl.org/dc/dcmitype/StillImage" />
        <dc:title />
      </cc:Work>
    </rdf:RDF>
  </metadata>
  <g
     transform="translate(-1.5368932,0.38964199)"
     id="layer1"
     inkscape:groupmode="layer"
     inkscape:label="Calque 1">
    <g
       id="g3069">
      <path
         inkscape:connector-curvature="0"
         d="m 40.527852,16.361123 c 3.57283,-2.08525 8.1304,0.87626 11.18979,2.51173 3.32797,1.95275 7.95332,5.91022 10.41162,0.90394 2.96988,-3.92287 6.54389,-8.03549 11.46415,-9.433921 5.603661,-0.5455 8.597221,5.631371 9.236771,10.347011 2.85916,15.62901 4.05585,31.70887 2.21224,47.53128 -1.28016,8.98774 -3.90156,18.72401 -11.297481,24.64046 -7.46873,5.20908 -17.52884,2.61748 -24.67582,-1.89478 -13.77551,-9.0122 -23.61563,-22.72261 -32.10833,-36.56241 -2.98607,-5.4565 -7.3780198,-10.78061 -7.4363398,-17.28887 -0.15916,-5.02119 5.2749198,-7.36798 9.5918298,-6.69055 4.1176,-0.13658 8.62566,1.98767 12.33936,1.64401 3.89353,-4.51124 4.36812,-11.74986 9.07221,-15.7079 z"
         id="path4767"
         sodipodi:nodetypes="ccccccccccccc"
         style="fill:url(#linearGradient3142);fill-opacity:1"
         inkscape:export-filename="/home/nux/Desktop/new-oisux.png"
         inkscape:export-xdpi="90"
         inkscape:export-ydpi="90" />
      <g
         id="g1499">
        <g
           id="g1491">
          <g
             id="g3044"
             transform="translate(1.7800707)">
            <path
               transform="translate(-1.0101525,4.5456864)"
               id="path8974"
               style="fill:none;fill-opacity:1;stroke:#000000;stroke-width:3.6;stroke-miterlimit:4;stroke-dasharray:none;stroke-opacity:1"
               inkscape:original="M 71.65625 3.8125 C 65.235225 5.235857 61.389995 11.209637 57.375 15.625 C 50.928501 14.194126 44.618083 6.1070044 37.53125 10.28125 C 32.627886 14.061871 32.308355 21.39829 28.4375 25.53125 C 21.547624 24.426231 11.656432 21.087526 6.90625 28.34375 C 3.1601904 37.077287 10.732501 45.373253 14.625 52.59375 C 24.626453 68.212942 36.281705 84.875845 54.15625 91.8125 C 63.443451 95.511088 74.96008 91.948781 79.40625 82.78125 C 88.245142 66.470657 86.555807 46.646846 85.0625 28.6875 C 83.354508 20.533528 84.545095 8.3905031 75.46875 4.28125 C 74.271616 3.8108762 72.930529 3.6552471 71.65625 3.8125 z "
               inkscape:radius="-0.439666"
               sodipodi:type="inkscape:offset"
               d="M 71.734375,4.2480469 C 65.541851,5.6306831 61.750932,11.466327 57.701172,15.919922 a 0.43970997,0.43970997 0 0 1 -0.421875,0.134766 c -3.364681,-0.74683 -6.564651,-3.157681 -9.787109,-4.8125 -3.214426,-1.6506949 -6.33536,-2.5694255 -9.712891,-0.59375 -2.332284,1.809004 -3.607453,4.492548 -4.775391,7.294921 -1.171644,2.811266 -2.226065,5.731863 -4.246094,7.888672 a 0.43970997,0.43970997 0 0 1 -0.390624,0.132813 c -3.480819,-0.558264 -7.655682,-1.658181 -11.50586,-1.722656 -3.836746,-0.06425 -7.2807296,0.853298 -9.5624999,4.308593 -1.7917655,4.210014 -0.8802232,8.296903 1,12.298828 1.8806739,4.002885 4.7283609,7.862362 6.6972659,11.507813 9.99438,15.608146 21.605109,32.170861 39.318359,39.044922 a 0.43970997,0.43970997 0 0 1 0.0039,0.002 c 9.080978,3.61646 20.355806,0.125096 24.691407,-8.814453 a 0.43970997,0.43970997 0 0 1 0.0098,-0.01758 C 87.776142,66.413508 86.118362,46.684618 84.625,28.724609 83.766983,24.593743 83.631772,19.555762 82.599609,15.066406 81.564674,10.564992 79.674376,6.6762744 75.302734,4.6894531 74.187505,4.2524373 72.927589,4.1046795 71.734375,4.2480469 Z" />
            <path
               inkscape:export-ydpi="90"
               inkscape:export-xdpi="90"
               inkscape:export-filename="/home/nux/Desktop/new-oisux.png"
               style="color:#000000;font-style:normal;font-variant:normal;font-weight:normal;font-stretch:normal;font-size:147.55px;line-height:125%;font-family:Ubuntu-Title;text-indent:0;text-align:start;text-decoration:none;text-decoration-line:none;letter-spacing:normal;word-spacing:normal;text-transform:none;writing-mode:lr-tb;direction:ltr;text-anchor:start;display:inline;overflow:visible;visibility:visible;opacity:1;fill:#ffff00;fill-opacity:0.331288;fill-rule:nonzero;stroke:#000000;stroke-width:1px;stroke-linecap:butt;stroke-linejoin:miter;stroke-miterlimit:4;stroke-dasharray:none;stroke-dashoffset:0;stroke-opacity:1;marker:none;marker-start:none;marker-mid:none;marker-end:none;enable-background:accumulate"
               sodipodi:nodetypes="ccccccccccccc"
               id="path4781"
               d="m 37.81989,16.361123 c 3.57283,-2.08525 8.1304,0.87626 11.18979,2.51173 3.32797,1.95275 7.95332,5.91022 10.41162,0.90394 2.96988,-3.92287 6.54389,-8.03549 11.46415,-9.433921 5.603661,-0.5455 8.597221,5.631371 9.236771,10.347011 2.85916,15.62901 4.05585,31.70887 2.21224,47.53128 -1.28016,8.98774 -3.90156,18.72401 -11.297481,24.64046 -7.46873,5.20908 -17.52884,2.61748 -24.67582,-1.89478 -13.77551,-9.0122 -23.61563,-22.72261 -32.10833,-36.56241 -2.98607,-5.4565 -7.3780192,-10.78061 -7.4363392,-17.28887 -0.15916,-5.02119 5.2749192,-7.36798 9.5918292,-6.69055 4.1176,-0.13658 8.62566,1.98767 12.33936,1.64401 3.89353,-4.51124 4.36812,-11.74986 9.07221,-15.7079 z"
               inkscape:connector-curvature="0" />
            <path
               id="text2160"
               d="m 60.591788,32.223275 c -5.553087,6.6e-5 -10.550834,1.573431 -14.993258,4.720099 -8.329598,5.553114 -12.494388,14.900753 -12.494382,28.042946 -0.185108,12.401851 3.239275,21.564388 10.273159,27.487639 4.997731,3.702041 10.735885,5.553059 17.214481,5.553059 5.738121,0 10.92097,-1.480815 15.548564,-4.442447 C 84.469882,88.031522 88.634671,78.498782 88.634733,64.98632 88.634671,52.399433 84.469882,42.959243 76.140352,36.665721 71.69786,33.704155 66.515011,32.223341 60.591788,32.223275 M 47.5421,66.096931 V 64.98632 c -2e-5,-7.959343 2.036099,-13.234743 6.108365,-15.826217 2.221194,-1.480765 4.534966,-2.221172 6.941323,-2.221223 9.069953,5.1e-5 13.604946,6.015858 13.604993,18.04744 -4.7e-5,12.401851 -4.53504,18.60276 -13.604993,18.602746 C 51.891971,83.58908 47.54208,77.758374 47.5421,66.096931 M 107.85135,5.2909413 c -3.14674,0.3702963 -5.18286,2.0362123 -6.10836,4.9977527 -0.37021,0.740495 -0.55531,1.573453 -0.55531,2.498877 v 1.110612 c 0,2.776609 1.20316,4.90528 3.60949,6.386016 2.40631,1.480892 4.90519,1.480892 7.49663,0 2.4063,-1.480736 3.60947,-3.609407 3.60949,-6.386016 v -1.110612 c -2e-5,-2.221137 -0.83298,-4.1647051 -2.49888,-5.8307121 -1.66593,-1.4807231 -3.51695,-2.0360284 -5.55306,-1.6659176 m 0.55531,26.6546807 c -3.14675,6.6e-5 -5.27542,1.48088 -6.38602,4.442447 -0.55531,0.92557 -0.83296,1.94363 -0.83296,3.054182 v 51.088138 c 0,2.776534 1.20316,4.905204 3.60949,6.386017 2.40631,1.480815 4.90519,1.480815 7.49663,0 2.4063,-1.480813 3.60947,-3.609483 3.60949,-6.386017 V 39.442251 c -2e-5,-2.036061 -0.74043,-3.794528 -2.22123,-5.275406 -1.29573,-1.48075 -3.05419,-2.221157 -5.2754,-2.221223 m 41.24881,-0.277653 c 5.36793,6.6e-5 9.99547,1.018126 13.88265,3.054182 6.29342,3.516997 8.97739,7.496685 8.05193,11.939076 -0.37025,2.776578 -2.12872,4.627595 -5.2754,5.553058 -2.77657,0.740453 -5.09034,0.0926 -6.94132,-1.94357 -2.59147,-3.88709 -6.75626,-5.460455 -12.49439,-4.7201 -0.37022,5.3e-5 -0.64788,0.0926 -0.83296,0.277653 -3.14675,0.370256 -5.27542,1.943621 -6.38601,4.7201 -0.55533,1.480861 -0.37022,3.054226 0.5553,4.720099 2.22121,1.480857 5.83069,2.128713 10.82847,1.943571 2.9616,4.1e-5 5.18282,0.185142 6.66367,0.555306 5.92322,0.555345 10.73586,3.516973 14.43795,8.884893 2.40627,3.331863 3.51688,6.941348 3.33183,10.828464 0.18505,5.923277 -2.22127,10.828474 -7.21897,14.715605 -2.03617,1.48082 -4.16484,2.591431 -6.38602,3.331835 -9.81043,3.146733 -18.51021,3.146733 -26.09937,0 -6.10838,-2.961625 -9.71786,-6.478559 -10.82847,-10.550811 -0.74041,-3.146717 0.46275,-5.645591 3.60949,-7.496629 2.96162,-1.850997 5.6456,-1.758446 8.05194,0.277653 0.37018,0.185122 0.64784,0.370224 0.83295,0.555306 3.14672,4.072259 8.69977,5.460522 16.65918,4.164794 3.1467,-0.185086 5.27537,-1.388248 6.38602,-3.609488 0.74037,-1.295693 0.74037,-2.683957 0,-4.164794 -1.66596,-1.850994 -4.62759,-2.776503 -8.8849,-2.776529 -9.25511,0.370229 -16.01133,-1.480788 -20.26866,-5.553059 -4.62755,-3.887105 -6.75622,-8.977404 -6.38602,-15.27091 0,-4.072192 1.20316,-7.681677 3.60949,-10.828465 4.25733,-5.923198 11.1061,-8.792276 20.54632,-8.60724 h 0.5553 m 43.87784,0.277653 c 2.0361,6.6e-5 3.88712,0.740473 5.55305,2.221223 1.4808,1.480878 2.22121,3.331896 2.22123,5.553059 v 31.652433 c -2e-5,2.591451 0.46273,4.720122 1.38826,6.386017 1.29569,2.406343 2.86906,3.979708 4.7201,4.7201 1.66589,0.555321 3.51691,0.832973 5.55306,0.832959 4.62751,1.4e-5 7.77424,-1.388249 9.4402,-4.164794 l 0.83296,-1.388265 c 0.92546,-2.036099 1.38822,-4.164769 1.38826,-6.386017 V 39.719904 c -4e-5,-2.96157 1.29567,-5.182791 3.88714,-6.663671 2.59138,-1.480749 4.9977,-1.480749 7.21898,0 2.59137,1.48088 3.88708,3.702101 3.88714,6.663671 v 31.652433 c -1.11067,12.772048 -6.84882,21.101628 -17.21448,24.988763 -2.96167,1.110612 -6.1084,1.665918 -9.4402,1.665918 -8.88492,0 -15.82623,-3.331832 -20.82397,-9.995506 -0.92552,-1.1106 -1.75848,-2.313762 -2.49888,-3.609488 -2.22123,-4.257327 -3.33184,-8.607218 -3.33183,-13.049687 V 39.719904 c -1e-5,-3.331774 1.38826,-5.645546 4.16479,-6.941323 0.9255,-0.55524 1.94356,-0.832893 3.05419,-0.832959 m 62.54999,0 c 2.40632,6.6e-5 4.34988,0.925575 5.83071,2.776529 l 14.99326,18.602746 14.99326,-18.602746 c 1.85097,-2.221158 4.16474,-3.146667 6.94132,-2.776529 2.77648,0.555371 4.72004,2.128736 5.83071,4.720099 0.92545,2.591487 0.4627,4.997809 -1.38826,7.218977 L 286.34747,64.98632 303.2843,85.810289 c 1.85096,2.221233 2.31371,4.720107 1.38826,7.496629 -1.11067,2.591429 -3.05423,4.072243 -5.83071,4.442447 -2.77658,0.555305 -5.09035,-0.277653 -6.94132,-2.498877 L 276.90727,76.647742 261.91401,95.250488 c -1.85103,2.221224 -4.1648,3.054182 -6.94132,2.498877 -2.77653,-0.370204 -4.7201,-1.851018 -5.83071,-4.442447 -0.92551,-2.776522 -0.46276,-5.275396 1.38826,-7.496629 L 267.46707,64.98632 250.53024,43.884698 c -2.03612,-2.406269 -2.40632,-4.997694 -1.11061,-7.774282 1.29571,-2.776465 3.51693,-4.164728 6.66367,-4.164794"
               style="font-style:normal;font-variant:normal;font-weight:normal;font-stretch:normal;font-size:138.826px;line-height:125%;font-family:Ubuntu-Title;text-align:start;writing-mode:lr-tb;text-anchor:start;fill:#ffffff;fill-opacity:1;stroke:none;stroke-width:0.940877px;stroke-linecap:butt;stroke-linejoin:miter;stroke-opacity:1"
               inkscape:connector-curvature="0" />
            <path
               id="path11902"
               d="m 60.591788,32.223275 c -5.553087,6.6e-5 -10.550834,1.573431 -14.993258,4.720099 -8.329598,5.553114 -12.494388,14.900753 -12.494382,28.042946 -0.185108,12.401851 3.239275,21.564388 10.273159,27.487639 4.997731,3.702041 10.735885,5.553059 17.214481,5.553059 5.738121,0 10.92097,-1.480815 15.548564,-4.442447 C 84.469882,88.031522 88.634671,78.498782 88.634733,64.98632 88.634671,52.399433 84.469882,42.959243 76.140352,36.665721 71.69786,33.704155 66.515011,32.223341 60.591788,32.223275 M 47.5421,66.096931 V 64.98632 c -2e-5,-7.959343 2.036099,-13.234743 6.108365,-15.826217 2.221194,-1.480765 4.534966,-2.221172 6.941323,-2.221223 9.069953,5.1e-5 13.604946,6.015858 13.604993,18.04744 -4.7e-5,12.401851 -4.53504,18.60276 -13.604993,18.602746 C 51.891971,83.58908 47.54208,77.758374 47.5421,66.096931 M 107.85135,5.2909413 c -3.14674,0.3702963 -5.18286,2.0362123 -6.10836,4.9977527 -0.37021,0.740495 -0.55531,1.573453 -0.55531,2.498877 v 1.110612 c 0,2.776609 1.20316,4.90528 3.60949,6.386016 2.40631,1.480892 4.90519,1.480892 7.49663,0 2.4063,-1.480736 3.60947,-3.609407 3.60949,-6.386016 v -1.110612 c -2e-5,-2.221137 -0.83298,-4.1647051 -2.49888,-5.8307121 -1.66593,-1.4807231 -3.51695,-2.0360284 -5.55306,-1.6659176 m 0.55531,26.6546807 c -3.14675,6.6e-5 -5.27542,1.48088 -6.38602,4.442447 -0.55531,0.92557 -0.83296,1.94363 -0.83296,3.054182 v 51.088138 c 0,2.776534 1.20316,4.905204 3.60949,6.386017 2.40631,1.480815 4.90519,1.480815 7.49663,0 2.4063,-1.480813 3.60947,-3.609483 3.60949,-6.386017 V 39.442251 c -2e-5,-2.036061 -0.74043,-3.794528 -2.22123,-5.275406 -1.29573,-1.48075 -3.05419,-2.221157 -5.2754,-2.221223 m 41.24881,-0.277653 c 5.36793,6.6e-5 9.99547,1.018126 13.88265,3.054182 6.29342,3.516997 8.97739,7.496685 8.05193,11.939076 -0.37025,2.776578 -2.12872,4.627595 -5.2754,5.553058 -2.77657,0.740453 -5.09034,0.0926 -6.94132,-1.94357 -2.59147,-3.88709 -6.75626,-5.460455 -12.49439,-4.7201 -0.37022,5.3e-5 -0.64788,0.0926 -0.83296,0.277653 -3.14675,0.370256 -5.27542,1.943621 -6.38601,4.7201 -0.55533,1.480861 -0.37022,3.054226 0.5553,4.720099 2.22121,1.480857 5.83069,2.128713 10.82847,1.943571 2.9616,4.1e-5 5.18282,0.185142 6.66367,0.555306 5.92322,0.555345 10.73586,3.516973 14.43795,8.884893 2.40627,3.331863 3.51688,6.941348 3.33183,10.828464 0.18505,5.923277 -2.22127,10.828474 -7.21897,14.715605 -2.03617,1.48082 -4.16484,2.591431 -6.38602,3.331835 -9.81043,3.146733 -18.51021,3.146733 -26.09937,0 -6.10838,-2.961625 -9.71786,-6.478559 -10.82847,-10.550811 -0.74041,-3.146717 0.46275,-5.645591 3.60949,-7.496629 2.96162,-1.850997 5.6456,-1.758446 8.05194,0.277653 0.37018,0.185122 0.64784,0.370224 0.83295,0.555306 3.14672,4.072259 8.69977,5.460522 16.65918,4.164794 3.1467,-0.185086 5.27537,-1.388248 6.38602,-3.609488 0.74037,-1.295693 0.74037,-2.683957 0,-4.164794 -1.66596,-1.850994 -4.62759,-2.776503 -8.8849,-2.776529 -9.25511,0.370229 -16.01133,-1.480788 -20.26866,-5.553059 -4.62755,-3.887105 -6.75622,-8.977404 -6.38602,-15.27091 0,-4.072192 1.20316,-7.681677 3.60949,-10.828465 4.25733,-5.923198 11.1061,-8.792276 20.54632,-8.60724 h 0.5553 m 43.87784,0.277653 c 2.0361,6.6e-5 3.88712,0.740473 5.55305,2.221223 1.4808,1.480878 2.22121,3.331896 2.22123,5.553059 v 31.652433 c -2e-5,2.591451 0.46273,4.720122 1.38826,6.386017 1.29569,2.406343 2.86906,3.979708 4.7201,4.7201 1.66589,0.555321 3.51691,0.832973 5.55306,0.832959 4.62751,1.4e-5 7.77424,-1.388249 9.4402,-4.164794 l 0.83296,-1.388265 c 0.92546,-2.036099 1.38822,-4.164769 1.38826,-6.386017 V 39.719904 c -4e-5,-2.96157 1.29567,-5.182791 3.88714,-6.663671 2.59138,-1.480749 4.9977,-1.480749 7.21898,0 2.59137,1.48088 3.88708,3.702101 3.88714,6.663671 v 31.652433 c -1.11067,12.772048 -6.84882,21.101628 -17.21448,24.988763 -2.96167,1.110612 -6.1084,1.665918 -9.4402,1.665918 -8.88492,0 -15.82623,-3.331832 -20.82397,-9.995506 -0.92552,-1.1106 -1.75848,-2.313762 -2.49888,-3.609488 -2.22123,-4.257327 -3.33184,-8.607218 -3.33183,-13.049687 V 39.719904 c -1e-5,-3.331774 1.38826,-5.645546 4.16479,-6.941323 0.9255,-0.55524 1.94356,-0.832893 3.05419,-0.832959 m 62.54999,0 c 2.40632,6.6e-5 4.34988,0.925575 5.83071,2.776529 l 14.99326,18.602746 14.99326,-18.602746 c 1.85097,-2.221158 4.16474,-3.146667 6.94132,-2.776529 2.77648,0.555371 4.72004,2.128736 5.83071,4.720099 0.92545,2.591487 0.4627,4.997809 -1.38826,7.218977 L 286.34747,64.98632 303.2843,85.810289 c 1.85096,2.221233 2.31371,4.720107 1.38826,7.496629 -1.11067,2.591429 -3.05423,4.072243 -5.83071,4.442447 -2.77658,0.555305 -5.09035,-0.277653 -6.94132,-2.498877 L 276.90727,76.647742 261.91401,95.250488 c -1.85103,2.221224 -4.1648,3.054182 -6.94132,2.498877 -2.77653,-0.370204 -4.7201,-1.851018 -5.83071,-4.442447 -0.92551,-2.776522 -0.46276,-5.275396 1.38826,-7.496629 L 267.46707,64.98632 250.53024,43.884698 c -2.03612,-2.406269 -2.40632,-4.997694 -1.11061,-7.774282 1.29571,-2.776465 3.51693,-4.164728 6.66367,-4.164794"
               style="color:#000000;font-style:normal;font-variant:normal;font-weight:normal;font-stretch:normal;font-size:138.826px;line-height:125%;font-family:Ubuntu-Title;text-align:start;writing-mode:lr-tb;text-anchor:start;display:inline;overflow:visible;visibility:visible;opacity:1;fill:none;fill-opacity:1;fill-rule:nonzero;stroke:#000000;stroke-width:3.6;stroke-linecap:butt;stroke-linejoin:miter;stroke-miterlimit:4;stroke-dasharray:none;stroke-dashoffset:0;stroke-opacity:1;marker:none;marker-start:none;marker-mid:none;marker-end:none;enable-background:accumulate"
               inkscape:connector-curvature="0" />
          </g>
        </g>
      </g>
      <text
         id="text3052"
         y="111.98692"
         x="31.237135"
         style="font-style:normal;font-variant:normal;font-weight:normal;font-stretch:normal;font-size:13.3333px;line-height:1.25;font-family:'Berlin Sans FB Demi';-inkscape-font-specification:'Berlin Sans FB Demi';font-variant-ligatures:normal;font-variant-caps:normal;font-variant-numeric:normal;font-feature-settings:normal;text-align:start;letter-spacing:0px;word-spacing:0px;writing-mode:lr-tb;text-anchor:start;fill:#000000;fill-opacity:1;stroke:none"
         xml:space="preserve"><tspan
           style="font-style:normal;font-variant:normal;font-weight:normal;font-stretch:normal;font-size:13.3333px;font-family:'DejaVu Serif';-inkscape-font-specification:'DejaVu Serif'"
           y="111.98692"
           x="31.237135"
           id="tspan3050"
           sodipodi:role="line">Promotion des logiciels libres dans l'Oise</tspan></text>
    </g>
  </g>
</svg>
